<?xml version="1.0" encoding="us-ascii" standalone="no"?><svg xmlns="http://www.w3.org/2000/svg" xmlns:xlink="http://www.w3.org/1999/xlink" contentStyleType="text/css" height="1247px" preserveAspectRatio="none" style="width:515px;height:1247px;background:#FFFFFF;" version="1.1" viewBox="0 0 515 1247" width="515px" zoomAndPan="magnify"><defs/><g><ellipse cx="238.5" cy="20" fill="#222222" rx="10" ry="10" style="stroke:#222222;stroke-width:1.0;"/><rect fill="#F1F1F1" height="34.1328" rx="12.5" ry="12.5" style="stroke:#181818;stroke-width:0.5;" width="165" x="156" y="50"/><text fill="#000000" font-family="sans-serif" font-size="12" lengthAdjust="spacing" textLength="145" x="166" y="71.6016">Inizializza Gestore Clienti</text><rect fill="#F1F1F1" height="34.1328" rx="12.5" ry="12.5" style="stroke:#181818;stroke-width:0.5;" width="174" x="151.5" y="104.1328"/><text fill="#000000" font-family="sans-serif" font-size="12" lengthAdjust="spacing" textLength="154" x="161.5" y="125.7344">Leggi Comando dal Cliente</text><rect fill="#F1F1F1" height="34.1328" rx="12.5" ry="12.5" style="stroke:#181818;stroke-width:0.5;" width="191" x="143" y="250.7432"/><text fill="#000000" font-family="sans-serif" font-size="12" lengthAdjust="spacing" textLength="171" x="153" y="272.3447">Analizza Richiesta di Ingresso</text><rect fill="#F1F1F1" height="34.1328" rx="12.5" ry="12.5" style="stroke:#181818;stroke-width:0.5;" width="179" x="149" y="304.876"/><text fill="#000000" font-family="sans-serif" font-size="12" lengthAdjust="spacing" textLength="159" x="159" y="326.4775">Blocca Mutex Supermercato</text><polygon fill="#F1F1F1" points="159.5,359.0088,317.5,359.0088,329.5,371.0088,317.5,383.0088,159.5,383.0088,147.5,371.0088,159.5,359.0088" style="stroke:#181818;stroke-width:0.5;"/><text fill="#000000" font-family="sans-serif" font-size="11" lengthAdjust="spacing" textLength="158" x="159.5" y="375.166">Possiamo Ammettere Cliente?</text><text fill="#000000" font-family="sans-serif" font-size="11" lengthAdjust="spacing" textLength="9" x="138.5" y="368.6885">s&#236;</text><text fill="#000000" font-family="sans-serif" font-size="11" lengthAdjust="spacing" textLength="14" x="329.5" y="368.6885">no</text><rect fill="#F1F1F1" height="34.1328" rx="12.5" ry="12.5" style="stroke:#181818;stroke-width:0.5;" width="111" x="66.5" y="393.0088"/><text fill="#000000" font-family="sans-serif" font-size="12" lengthAdjust="spacing" textLength="91" x="76.5" y="414.6104">Ammetti Cliente</text><rect fill="#F1F1F1" height="34.1328" rx="12.5" ry="12.5" style="stroke:#181818;stroke-width:0.5;" width="152" x="46" y="462.1416"/><text fill="#000000" font-family="sans-serif" font-size="12" lengthAdjust="spacing" textLength="132" x="56" y="483.7432">Aggiorna Lista d'Attesa</text><rect fill="#F1F1F1" height="34.1328" rx="12.5" ry="12.5" style="stroke:#181818;stroke-width:0.5;" width="222" x="11" y="516.2744"/><text fill="#000000" font-family="sans-serif" font-size="12" lengthAdjust="spacing" textLength="202" x="21" y="537.876">Invia "ENTRY_ACCEPTED" al Cliente</text><rect fill="#F1F1F1" height="34.1328" rx="12.5" ry="12.5" style="stroke:#181818;stroke-width:0.5;" width="204" x="253" y="393.0088"/><text fill="#000000" font-family="sans-serif" font-size="12" lengthAdjust="spacing" textLength="184" x="263" y="414.6104">Invia "ENTRY_DENIED" al Cliente</text><polygon fill="#F1F1F1" points="238.5,556.4072,250.5,568.4072,238.5,580.4072,226.5,568.4072,238.5,556.4072" style="stroke:#181818;stroke-width:0.5;"/><rect fill="#F1F1F1" height="34.1328" rx="12.5" ry="12.5" style="stroke:#181818;stroke-width:0.5;" width="186" x="145.5" y="600.4072"/><text fill="#000000" font-family="sans-serif" font-size="12" lengthAdjust="spacing" textLength="166" x="155.5" y="622.0088">Sblocca Mutex Supermercato</text><polygon fill="#F1F1F1" points="157.5,202.2656,319.5,202.2656,331.5,214.2656,319.5,226.2656,157.5,226.2656,145.5,214.2656,157.5,202.2656" style="stroke:#181818;stroke-width:0.5;"/><text fill="#000000" font-family="sans-serif" font-size="11" lengthAdjust="spacing" textLength="9" x="242.5" y="236.9004">s&#236;</text><text fill="#000000" font-family="sans-serif" font-size="11" lengthAdjust="spacing" textLength="162" x="157.5" y="218.4229">Comando &#232; "ENTRY_REQUEST"</text><polygon fill="#F1F1F1" points="238.5,655.6953,250.5,667.6953,238.5,679.6953,226.5,667.6953,238.5,655.6953" style="stroke:#181818;stroke-width:0.5;"/><rect fill="#F1F1F1" height="34.1328" rx="12.5" ry="12.5" style="stroke:#181818;stroke-width:0.5;" width="139" x="169" y="748.1729"/><text fill="#000000" font-family="sans-serif" font-size="12" lengthAdjust="spacing" textLength="119" x="179" y="769.7744">Processa Pagamento</text><rect fill="#F1F1F1" height="34.1328" rx="12.5" ry="12.5" style="stroke:#181818;stroke-width:0.5;" width="191" x="143" y="817.3057"/><text fill="#000000" font-family="sans-serif" font-size="12" lengthAdjust="spacing" textLength="171" x="153" y="838.9072">Stampa Conferma Pagamento</text><polygon fill="#F1F1F1" points="149.5,699.6953,327.5,699.6953,339.5,711.6953,327.5,723.6953,149.5,723.6953,137.5,711.6953,149.5,699.6953" style="stroke:#181818;stroke-width:0.5;"/><text fill="#000000" font-family="sans-serif" font-size="11" lengthAdjust="spacing" textLength="9" x="242.5" y="734.3301">s&#236;</text><text fill="#000000" font-family="sans-serif" font-size="11" lengthAdjust="spacing" textLength="178" x="149.5" y="715.8525">Comando &#232; "PAYMENT_REQUEST"</text><polygon fill="#F1F1F1" points="238.5,871.4385,250.5,883.4385,238.5,895.4385,226.5,883.4385,238.5,871.4385" style="stroke:#181818;stroke-width:0.5;"/><rect fill="#F1F1F1" height="34.1328" rx="12.5" ry="12.5" style="stroke:#181818;stroke-width:0.5;" width="161" x="158" y="963.916"/><text fill="#000000" font-family="sans-serif" font-size="12" lengthAdjust="spacing" textLength="141" x="168" y="985.5176">Stampa Conferma Uscita</text><polygon fill="#F1F1F1" points="133.5,915.4385,343.5,915.4385,355.5,927.4385,343.5,939.4385,133.5,939.4385,121.5,927.4385,133.5,915.4385" style="stroke:#181818;stroke-width:0.5;"/><text fill="#000000" font-family="sans-serif" font-size="11" lengthAdjust="spacing" textLength="9" x="242.5" y="950.0732">s&#236;</text><text fill="#000000" font-family="sans-serif" font-size="11" lengthAdjust="spacing" textLength="210" x="133.5" y="931.5957">Comando &#232; "NO_ITEMS_EXIT_REQUEST"</text><polygon fill="#F1F1F1" points="238.5,1018.0488,250.5,1030.0488,238.5,1042.0488,226.5,1030.0488,238.5,1018.0488" style="stroke:#181818;stroke-width:0.5;"/><rect fill="#F1F1F1" height="34.1328" rx="12.5" ry="12.5" style="stroke:#181818;stroke-width:0.5;" width="165" x="156" y="1062.0488"/><text fill="#000000" font-family="sans-serif" font-size="12" lengthAdjust="spacing" textLength="145" x="166" y="1083.6504">Leggi Prossimo Comando</text><polygon fill="#F1F1F1" points="238.5,158.2656,250.5,170.2656,238.5,182.2656,226.5,170.2656,238.5,158.2656" style="stroke:#181818;stroke-width:0.5;"/><polygon fill="#F1F1F1" points="177,1116.1816,300,1116.1816,312,1128.1816,300,1140.1816,177,1140.1816,165,1128.1816,177,1116.1816" style="stroke:#181818;stroke-width:0.5;"/><text fill="#000000" font-family="sans-serif" font-size="11" lengthAdjust="spacing" textLength="123" x="177" y="1132.3389">Comando non &#232; "QUIT"</text><rect fill="#F1F1F1" height="34.1328" rx="12.5" ry="12.5" style="stroke:#181818;stroke-width:0.5;" width="175" x="151" y="1160.1816"/><text fill="#000000" font-family="sans-serif" font-size="12" lengthAdjust="spacing" textLength="155" x="161" y="1181.7832">Chiudi Connessione Cliente</text><ellipse cx="238.5" cy="1225.3145" fill="none" rx="11" ry="11" style="stroke:#222222;stroke-width:1.0;"/><ellipse cx="238.5" cy="1225.3145" fill="#222222" rx="6" ry="6" style="stroke:#222222;stroke-width:1.0;"/><line style="stroke:#181818;stroke-width:1.0;" x1="238.5" x2="238.5" y1="30" y2="50"/><polygon fill="#181818" points="234.5,40,238.5,50,242.5,40,238.5,44" style="stroke:#181818;stroke-width:1.0;"/><line style="stroke:#181818;stroke-width:1.0;" x1="238.5" x2="238.5" y1="84.1328" y2="104.1328"/><polygon fill="#181818" points="234.5,94.1328,238.5,104.1328,242.5,94.1328,238.5,98.1328" style="stroke:#181818;stroke-width:1.0;"/><line style="stroke:#181818;stroke-width:1.0;" x1="238.5" x2="238.5" y1="284.876" y2="304.876"/><polygon fill="#181818" points="234.5,294.876,238.5,304.876,242.5,294.876,238.5,298.876" style="stroke:#181818;stroke-width:1.0;"/><line style="stroke:#181818;stroke-width:1.0;" x1="122" x2="122" y1="427.1416" y2="462.1416"/><polygon fill="#181818" points="118,452.1416,122,462.1416,126,452.1416,122,456.1416" style="stroke:#181818;stroke-width:1.0;"/><line style="stroke:#181818;stroke-width:1.0;" x1="122" x2="122" y1="496.2744" y2="516.2744"/><polygon fill="#181818" points="118,506.2744,122,516.2744,126,506.2744,122,510.2744" style="stroke:#181818;stroke-width:1.0;"/><line style="stroke:#181818;stroke-width:1.0;" x1="147.5" x2="122" y1="371.0088" y2="371.0088"/><line style="stroke:#181818;stroke-width:1.0;" x1="122" x2="122" y1="371.0088" y2="393.0088"/><polygon fill="#181818" points="118,383.0088,122,393.0088,126,383.0088,122,387.0088" style="stroke:#181818;stroke-width:1.0;"/><line style="stroke:#181818;stroke-width:1.0;" x1="329.5" x2="355" y1="371.0088" y2="371.0088"/><line style="stroke:#181818;stroke-width:1.0;" x1="355" x2="355" y1="371.0088" y2="393.0088"/><polygon fill="#181818" points="351,383.0088,355,393.0088,359,383.0088,355,387.0088" style="stroke:#181818;stroke-width:1.0;"/><line style="stroke:#181818;stroke-width:1.0;" x1="122" x2="122" y1="550.4072" y2="568.4072"/><line style="stroke:#181818;stroke-width:1.0;" x1="122" x2="226.5" y1="568.4072" y2="568.4072"/><polygon fill="#181818" points="216.5,564.4072,226.5,568.4072,216.5,572.4072,220.5,568.4072" style="stroke:#181818;stroke-width:1.0;"/><line style="stroke:#181818;stroke-width:1.0;" x1="355" x2="355" y1="427.1416" y2="568.4072"/><line style="stroke:#181818;stroke-width:1.0;" x1="355" x2="250.5" y1="568.4072" y2="568.4072"/><polygon fill="#181818" points="260.5,564.4072,250.5,568.4072,260.5,572.4072,256.5,568.4072" style="stroke:#181818;stroke-width:1.0;"/><line style="stroke:#181818;stroke-width:1.0;" x1="238.5" x2="238.5" y1="339.0088" y2="359.0088"/><polygon fill="#181818" points="234.5,349.0088,238.5,359.0088,242.5,349.0088,238.5,353.0088" style="stroke:#181818;stroke-width:1.0;"/><line style="stroke:#181818;stroke-width:1.0;" x1="238.5" x2="238.5" y1="580.4072" y2="600.4072"/><polygon fill="#181818" points="234.5,590.4072,238.5,600.4072,242.5,590.4072,238.5,594.4072" style="stroke:#181818;stroke-width:1.0;"/><line style="stroke:#181818;stroke-width:1.0;" x1="238.5" x2="238.5" y1="226.2656" y2="250.7432"/><polygon fill="#181818" points="234.5,240.7432,238.5,250.7432,242.5,240.7432,238.5,244.7432" style="stroke:#181818;stroke-width:1.0;"/><line style="stroke:#181818;stroke-width:1.0;" x1="331.5" x2="471" y1="214.2656" y2="214.2656"/><polygon fill="#181818" points="467,432.6416,471,442.6416,475,432.6416,471,436.6416" style="stroke:#181818;stroke-width:1.0;"/><line style="stroke:#181818;stroke-width:1.0;" x1="471" x2="471" y1="214.2656" y2="667.6953"/><line style="stroke:#181818;stroke-width:1.0;" x1="471" x2="250.5" y1="667.6953" y2="667.6953"/><polygon fill="#181818" points="260.5,663.6953,250.5,667.6953,260.5,671.6953,256.5,667.6953" style="stroke:#181818;stroke-width:1.0;"/><line style="stroke:#181818;stroke-width:1.0;" x1="238.5" x2="238.5" y1="634.54" y2="655.6953"/><polygon fill="#181818" points="234.5,645.6953,238.5,655.6953,242.5,645.6953,238.5,649.6953" style="stroke:#181818;stroke-width:1.0;"/><line style="stroke:#181818;stroke-width:1.0;" x1="238.5" x2="238.5" y1="782.3057" y2="817.3057"/><polygon fill="#181818" points="234.5,807.3057,238.5,817.3057,242.5,807.3057,238.5,811.3057" style="stroke:#181818;stroke-width:1.0;"/><line style="stroke:#181818;stroke-width:1.0;" x1="238.5" x2="238.5" y1="723.6953" y2="748.1729"/><polygon fill="#181818" points="234.5,738.1729,238.5,748.1729,242.5,738.1729,238.5,742.1729" style="stroke:#181818;stroke-width:1.0;"/><line style="stroke:#181818;stroke-width:1.0;" x1="339.5" x2="351.5" y1="711.6953" y2="711.6953"/><polygon fill="#181818" points="347.5,789.8057,351.5,799.8057,355.5,789.8057,351.5,793.8057" style="stroke:#181818;stroke-width:1.0;"/><line style="stroke:#181818;stroke-width:1.0;" x1="351.5" x2="351.5" y1="711.6953" y2="883.4385"/><line style="stroke:#181818;stroke-width:1.0;" x1="351.5" x2="250.5" y1="883.4385" y2="883.4385"/><polygon fill="#181818" points="260.5,879.4385,250.5,883.4385,260.5,887.4385,256.5,883.4385" style="stroke:#181818;stroke-width:1.0;"/><line style="stroke:#181818;stroke-width:1.0;" x1="238.5" x2="238.5" y1="851.4385" y2="871.4385"/><polygon fill="#181818" points="234.5,861.4385,238.5,871.4385,242.5,861.4385,238.5,865.4385" style="stroke:#181818;stroke-width:1.0;"/><line style="stroke:#181818;stroke-width:1.0;" x1="238.5" x2="238.5" y1="679.6953" y2="699.6953"/><polygon fill="#181818" points="234.5,689.6953,238.5,699.6953,242.5,689.6953,238.5,693.6953" style="stroke:#181818;stroke-width:1.0;"/><line style="stroke:#181818;stroke-width:1.0;" x1="238.5" x2="238.5" y1="939.4385" y2="963.916"/><polygon fill="#181818" points="234.5,953.916,238.5,963.916,242.5,953.916,238.5,957.916" style="stroke:#181818;stroke-width:1.0;"/><line style="stroke:#181818;stroke-width:1.0;" x1="355.5" x2="367.5" y1="927.4385" y2="927.4385"/><polygon fill="#181818" points="363.5,970.9824,367.5,980.9824,371.5,970.9824,367.5,974.9824" style="stroke:#181818;stroke-width:1.0;"/><line style="stroke:#181818;stroke-width:1.0;" x1="367.5" x2="367.5" y1="927.4385" y2="1030.0488"/><line style="stroke:#181818;stroke-width:1.0;" x1="367.5" x2="250.5" y1="1030.0488" y2="1030.0488"/><polygon fill="#181818" points="260.5,1026.0488,250.5,1030.0488,260.5,1034.0488,256.5,1030.0488" style="stroke:#181818;stroke-width:1.0;"/><line style="stroke:#181818;stroke-width:1.0;" x1="238.5" x2="238.5" y1="998.0488" y2="1018.0488"/><polygon fill="#181818" points="234.5,1008.0488,238.5,1018.0488,242.5,1008.0488,238.5,1012.0488" style="stroke:#181818;stroke-width:1.0;"/><line style="stroke:#181818;stroke-width:1.0;" x1="238.5" x2="238.5" y1="895.4385" y2="915.4385"/><polygon fill="#181818" points="234.5,905.4385,238.5,915.4385,242.5,905.4385,238.5,909.4385" style="stroke:#181818;stroke-width:1.0;"/><line style="stroke:#181818;stroke-width:1.0;" x1="238.5" x2="238.5" y1="1042.0488" y2="1062.0488"/><polygon fill="#181818" points="234.5,1052.0488,238.5,1062.0488,242.5,1052.0488,238.5,1056.0488" style="stroke:#181818;stroke-width:1.0;"/><line style="stroke:#181818;stroke-width:1.0;" x1="238.5" x2="238.5" y1="182.2656" y2="202.2656"/><polygon fill="#181818" points="234.5,192.2656,238.5,202.2656,242.5,192.2656,238.5,196.2656" style="stroke:#181818;stroke-width:1.0;"/><line style="stroke:#181818;stroke-width:1.0;" x1="312" x2="489" y1="1128.1816" y2="1128.1816"/><polygon fill="#181818" points="485,654.54,489,644.54,493,654.54,489,650.54" style="stroke:#181818;stroke-width:1.0;"/><line style="stroke:#181818;stroke-width:1.0;" x1="489" x2="489" y1="170.2656" y2="1128.1816"/><line style="stroke:#181818;stroke-width:1.0;" x1="489" x2="250.5" y1="170.2656" y2="170.2656"/><polygon fill="#181818" points="260.5,166.2656,250.5,170.2656,260.5,174.2656,256.5,170.2656" style="stroke:#181818;stroke-width:1.0;"/><line style="stroke:#181818;stroke-width:1.0;" x1="238.5" x2="238.5" y1="1096.1816" y2="1116.1816"/><polygon fill="#181818" points="234.5,1106.1816,238.5,1116.1816,242.5,1106.1816,238.5,1110.1816" style="stroke:#181818;stroke-width:1.0;"/><line style="stroke:#181818;stroke-width:1.0;" x1="238.5" x2="238.5" y1="138.2656" y2="158.2656"/><polygon fill="#181818" points="234.5,148.2656,238.5,158.2656,242.5,148.2656,238.5,152.2656" style="stroke:#181818;stroke-width:1.0;"/><line style="stroke:#181818;stroke-width:1.0;" x1="238.5" x2="238.5" y1="1140.1816" y2="1160.1816"/><polygon fill="#181818" points="234.5,1150.1816,238.5,1160.1816,242.5,1150.1816,238.5,1154.1816" style="stroke:#181818;stroke-width:1.0;"/><line style="stroke:#181818;stroke-width:1.0;" x1="238.5" x2="238.5" y1="1194.3145" y2="1214.3145"/><polygon fill="#181818" points="234.5,1204.3145,238.5,1214.3145,242.5,1204.3145,238.5,1208.3145" style="stroke:#181818;stroke-width:1.0;"/><!--SRC=[VP91Ri9034NtEON5fd05igZICAeY0GqaI6M5tCGabfAPQ6PeAqxKHM_1nJg1f21AsOx_-Fb_srZKrXj7alUC5U_t2CzahD84OSKaBVlUU4f5mH2g6cMk8CUggv7lUPeQGki1y1Q6lUJm1GCnJvVhpL8iLY991oEm9KaOciFto8a1ne7iU4lEIdPCX9mXaeKcOvH_4ZrLAiiGPZjBdv3i6j8rwGnjLs-PiJA6iLOGr3LPIx-Jq-CVQ8izglZie7zt5fMM25C-Zl8Gk5u6V-kHV6ViNGLXAE9KJ0PmcKMheyeG3AKQtVmt4VFevY-Py_RaE7cxPxaNNeST1-kPGzo9EzOgSy4Yn5XWxT1zn8d5ka6tNRbrgAlwVxpvooPAnIpPYDVe7lMw-SfaRF6oStTSRZotHhV5Zk9tXmKV9LTqXaibZmCiLf7ZUTuuB7cNjySffRF7Ij8vMdV7pGy0]--></g></svg>